<?xml version="1.0" standalone="no"?>
<!DOCTYPE svg PUBLIC "-//W3C//DTD SVG 20010904//EN"
 "http://www.w3.org/TR/2001/REC-SVG-20010904/DTD/svg10.dtd">
<svg version="1.0" xmlns="http://www.w3.org/2000/svg"
 width="700.000000pt" height="700.000000pt" viewBox="0 0 700.000000 700.000000"
 preserveAspectRatio="xMidYMid meet">
<metadata>
Created by potrace 1.11, written by Peter Selinger 2001-2013
</metadata>
<g transform="translate(0.000000,700.000000) scale(0.100000,-0.100000)"
fill="#000000" stroke="none">
<path d="M82 6913 l-82 -84 1664 -1665 1665 -1664 -1665 -1665 -1664 -1664 86
-85 86 -86 1664 1664 1664 1664 1664 -1664 1664 -1663 87 85 87 85 -1665 1664
-1665 1665 1664 1664 1664 1664 -86 86 -85 86 -1664 -1664 -1665 -1664 -1664
1664 c-915 915 -1666 1664 -1668 1663 -1 0 -40 -39 -86 -86z"/>
</g>
</svg>
